<svg width="300" height="100" viewBox="0 0 462 99" fill="none" xmlns="http://www.w3.org/2000/svg">
<path d="M50.9373 96.8941H121.118L90.1116 47.73C90.1116 47.73 59.8418 63.766 50.9373 96.8941Z" fill="#333333"/>
<path d="M0 96.8941L60.5588 0L89.4139 46.3057C89.4139 46.3057 35.9768 53.4371 0 96.8941Z" fill="#80CBCF"/>
<path d="M144.364 36.6602L157.328 79.9072L170.128 36.6602H184.152L163.211 97.1072H151.422L130.293 36.6602H144.364Z" fill="#333333"/>
<path d="M220.415 98.2135C211.803 98.2135 204.83 95.5076 199.497 90.0959C194.148 84.6841 191.474 77.4684 191.474 68.4488V66.7782C191.474 60.739 192.634 55.3508 194.956 50.6135C197.293 45.8606 200.564 42.1586 204.768 39.5076C208.972 36.8723 213.662 35.5547 218.838 35.5547C227.074 35.5547 233.434 38.1821 237.921 43.437C242.407 48.6763 244.65 56.1037 244.65 65.7194V71.1782H205.168C205.576 76.1821 207.238 80.1351 210.156 83.037C213.089 85.939 216.768 87.39 221.191 87.39C227.419 87.39 232.485 84.8723 236.391 79.837L243.709 86.8253C241.278 90.4331 238.046 93.2331 234.015 95.2253C229.968 97.2174 225.434 98.2135 220.415 98.2135ZM218.791 46.4488C215.074 46.4488 212.07 47.7508 209.78 50.3547C207.489 52.9586 206.023 56.59 205.38 61.2488H231.238V60.237C230.94 55.688 229.732 52.2527 227.615 49.9312C225.497 47.6096 222.556 46.4488 218.791 46.4488Z" fill="#333333"/>
<path d="M252.645 36.6606H265.445L265.845 43.6488C270.3 38.2527 276.159 35.5547 283.422 35.5547C296.018 35.5547 302.426 42.7625 302.645 57.1782V97.1076H289.069V57.9547C289.069 54.1116 288.237 51.2723 286.575 49.437C284.927 47.5861 282.222 46.6606 278.457 46.6606C272.982 46.6606 268.904 49.139 266.222 54.0959V97.1076H252.645V36.6606Z" fill="#333333"/>
<path d="M348.733 97.1072L348.404 91.1778C344.42 95.868 338.757 98.2131 331.416 98.2131C324.859 98.2131 319.894 96.2994 316.522 92.4719C313.165 88.6288 311.486 83.0758 311.486 75.8131V36.6602H325.039V75.6484C325.039 83.319 328.223 87.1543 334.592 87.1543C341.196 87.1543 345.651 84.7935 347.957 80.0719V36.6602H361.533V97.1072H348.733Z" fill="#333333"/>
<path d="M399.626 57.0605V68.0017H370.309V57.0605H399.626Z" fill="#333333"/>
<path d="M455.49 49.6249V60.8014H422.078V85.8132H461.113V97.1073H407.937V15.7661H460.737V27.1779H422.078V49.6249H455.49Z" fill="#333333"/>
</svg>
