<!--?xml version="1.0" encoding="utf-8"?-->
<!-- Generator: Adobe Illustrator 18.0.0, SVG Export Plug-In . SVG Version: 6.00 Build 0)  -->

<svg version="1.1" id="_x32_" xmlns="http://www.w3.org/2000/svg" xmlns:xlink="http://www.w3.org/1999/xlink" x="0px" y="0px" viewBox="0 0 512 512" style="width: 512px; height: 512px; opacity: 1;" xml:space="preserve">
<style type="text/css">
	.st0{fill:#4B4B4B;}
</style>
<g>
	<path class="st0" d="M458.047,168.92h-63.358v-30.029c0-3.496-0.174-6.949-0.429-10.381h0.429C389.369,56.758,329.289,0,256.199,0
		c-0.067,0-0.133,0.006-0.2,0.006c-0.067,0-0.133-0.006-0.2-0.006c-73.089,0-133.169,56.758-138.49,128.51h0.428
		c-0.255,3.432-0.428,6.885-0.428,10.381v30.029H53.953c-22.718,0-40.801,19.029-39.644,41.719l14.394,263.689
		C29.78,495.438,47.21,512,68.347,512h375.306c21.137,0,38.566-16.562,39.644-37.672l14.395-263.689
		C498.849,187.949,480.765,168.92,458.047,168.92z M276.618,341.822v57.459c0,9.893-8.095,17.988-17.988,17.988h0
		c-9.894,0-17.988-8.096-17.988-17.988v-57.459c-11.579-6.385-19.517-18.561-19.517-32.719c0-20.713,16.792-37.506,37.505-37.506
		s37.505,16.793,37.505,37.506C296.135,323.262,288.198,335.438,276.618,341.822z M339.331,168.92H172.669v-30.029
		c0-45.988,37.367-83.418,83.33-83.526c45.964,0.108,83.331,37.537,83.331,83.526V168.92z" style="fill: rgb(187, 224, 220);"></path>
</g>
</svg>
