<!--?xml version="1.0" encoding="utf-8"?-->
<!-- Generator: Adobe Illustrator 18.1.1, SVG Export Plug-In . SVG Version: 6.00 Build 0)  -->

<svg version="1.1" id="_x32_" xmlns="http://www.w3.org/2000/svg" xmlns:xlink="http://www.w3.org/1999/xlink" x="0px" y="0px" viewBox="0 0 512 512" style="width: 512px; height: 512px; opacity: 1;" xml:space="preserve">
<style type="text/css">
	.st0{fill:#4B4B4B;}
</style>
<g>
	<path class="st0" d="M450.498,155.424h-22.157v137.153h22.157c15.036,0,27.213-12.185,27.213-27.213v-82.719
		C477.711,167.61,465.534,155.424,450.498,155.424z" style="fill: rgb(187, 224, 220);"></path>
	<path class="st0" d="M438.841,0h-29.699H73.159c-21.463,0-38.87,17.407-38.87,38.87v434.253c0,21.471,17.407,38.877,38.87,38.877
		h297.114c21.464,0,38.87-17.406,38.87-38.877V137.146h41.356c15.036,0,27.213-12.179,27.213-27.207V38.87
		C477.711,17.407,460.305,0,438.841,0z M163.199,187.502c0-33.784,27.384-61.17,61.176-61.17c33.792,0,61.17,27.385,61.17,61.17
		v17.357c0,33.784-27.378,61.17-61.17,61.17c-33.792,0-61.176-27.386-61.176-61.17V187.502z M224.376,382.168H112.615
		c0-50.842,29.828-92.734,86.826-102.091c7.857,2.615,16.213,4.079,24.934,4.079c8.721,0,17.078-1.464,24.935-4.079
		c57.006,9.357,86.826,51.249,86.826,102.091H224.376z" style="fill: rgb(187, 224, 220);"></path>
</g>
</svg>
