<!--?xml version="1.0" encoding="utf-8"?-->
<!-- Generator: Adobe Illustrator 18.1.1, SVG Export Plug-In . SVG Version: 6.00 Build 0)  -->

<svg version="1.1" id="_x32_" xmlns="http://www.w3.org/2000/svg" xmlns:xlink="http://www.w3.org/1999/xlink" x="0px" y="0px" viewBox="0 0 512 512" style="width: 512px; height: 512px; opacity: 1;" xml:space="preserve">
<style type="text/css">
	.st0{fill:#4B4B4B;}
</style>
<g>
	<path class="st0" d="M508.247,70.39c-4.906-9.166-13.99-15.347-24.322-16.54L228.783,24.411
		c-32.842-3.786-64.584,13.208-79.649,42.638L13.166,332.741c-6.709,13.108-6.572,28.673,0.382,41.654
		c6.945,12.99,19.825,21.737,34.454,23.431l232.766,28.2c6.618,0.819,11.598,6.445,11.598,13.117v2.267
		c0,3.786-1.62,7.391-4.46,9.904c-2.831,2.503-6.608,3.677-10.36,3.213L48.003,426.718c-19.052-2.103-35.829-12.981-44.877-29.12
		c-9.321,16.312,1.848,59.414,38.35,63.291l232.594,26.835c24.177,2.804,47.544-9.767,58.549-31.486L508.52,99.792
		C513.254,90.544,513.153,79.557,508.247,70.39z M321.413,307.735c-0.145,0.082-2.403,1.366-26.908,15.066
		c-28.492,15.965-78.42-14.255-107.75-65.868c-29.329-51.64-29.566-109.661-1.047-125.627
		c24.495-13.718,26.744-14.983,26.898-15.056c6.5-3.641,14.164-2.303,17.159,2.967l20.618,36.274
		c2.995,5.271,0.172,12.49-6.326,16.121l-20.218,11.315c-5.926,3.332-8.884,9.676-6.918,14.874c0,0,0.292,8.156,14.91,33.889
		c14.62,25.734,21.511,30.194,21.511,30.194c3.45,4.351,10.468,5.134,16.385,1.821l20.226-11.333
		c6.5-3.623,14.173-2.294,17.177,2.976l20.599,36.275C330.734,296.895,327.894,304.103,321.413,307.735z" style="fill: rgb(187, 224, 220);"></path>
</g>
</svg>
